<?xml version="1.0" encoding="utf-8"?>
<!-- Generator: Adobe Illustrator 24.0.0, SVG Export Plug-In . SVG Version: 6.00 Build 0)  -->
<svg version="1.1" id="图层_1" xmlns="http://www.w3.org/2000/svg" xmlns:xlink="http://www.w3.org/1999/xlink" x="0px" y="0px"
	 viewBox="0 0 960 642" style="enable-background:new 0 0 960 642;" xml:space="preserve">
<style type="text/css">
	.st0{fill:#464667;}
	.st1{opacity:0.39;}
	.st2{fill:#FFFFFF;}
	.st3{fill:#C5D8FF;}
	.st4{fill:#1A1A1A;}
	.st5{fill:#E3AF20;}
	.st6{fill:#FB5E57;}
	.st7{fill:#FEBC2E;}
	.st8{fill:#29CE42;}
	.st9{fill:#F4D27A;}
</style>
<title>知识加油站图片</title>
<rect y="1" class="st0" width="960" height="640"/>
<g class="st1">
	<rect x="20.2" class="st2" width="0.5" height="642"/>
	<rect x="40.6" class="st2" width="0.5" height="642"/>
	<rect x="61" class="st2" width="0.5" height="642"/>
	<rect x="81.5" class="st2" width="0.5" height="642"/>
	<rect x="101.9" class="st2" width="0.5" height="642"/>
	<rect x="122.3" class="st2" width="0.5" height="642"/>
	<rect x="142.7" class="st2" width="0.5" height="642"/>
	<rect x="163.1" class="st2" width="0.5" height="642"/>
	<rect x="183.6" class="st2" width="0.5" height="642"/>
	<rect x="204" class="st2" width="0.5" height="642"/>
	<rect x="224.4" class="st2" width="0.5" height="642"/>
	<rect x="244.9" class="st2" width="0.5" height="642"/>
	<rect x="265.3" class="st2" width="0.5" height="642"/>
	<rect x="285.7" class="st2" width="0.5" height="642"/>
	<rect x="306.1" class="st2" width="0.5" height="642"/>
	<rect x="326.6" class="st2" width="0.5" height="642"/>
	<rect x="347" class="st2" width="0.5" height="642"/>
	<rect x="367.4" class="st2" width="0.5" height="642"/>
	<rect x="387.8" class="st2" width="0.5" height="642"/>
	<rect x="408.3" class="st2" width="0.5" height="642"/>
	<rect x="428.7" class="st2" width="0.5" height="642"/>
	<rect x="449.1" class="st2" width="0.5" height="642"/>
	<rect x="469.5" class="st2" width="0.5" height="642"/>
	<rect x="490" class="st2" width="0.5" height="642"/>
	<rect x="510.4" class="st2" width="0.5" height="642"/>
	<rect x="530.8" class="st2" width="0.5" height="642"/>
	<rect x="551.2" class="st2" width="0.5" height="642"/>
	<rect x="571.7" class="st2" width="0.5" height="642"/>
	<rect x="592.1" class="st2" width="0.5" height="642"/>
	<rect x="632.9" class="st2" width="0.5" height="642"/>
	<rect x="673.8" class="st2" width="0.5" height="642"/>
	<rect x="612.5" class="st2" width="0.5" height="642"/>
	<rect x="653.4" class="st2" width="0.5" height="642"/>
	<rect x="694.2" class="st2" width="0.5" height="642"/>
	<rect x="714.6" class="st2" width="0.5" height="642"/>
	<rect x="735.1" class="st2" width="0.5" height="642"/>
	<rect x="755.5" class="st2" width="0.5" height="642"/>
	<rect x="775.9" class="st2" width="0.5" height="642"/>
	<rect x="796.3" class="st2" width="0.5" height="642"/>
	<rect x="816.8" class="st2" width="0.5" height="642"/>
	<rect x="837.2" class="st2" width="0.5" height="642"/>
	<rect x="857.6" class="st2" width="0.5" height="642"/>
	<rect x="878" class="st2" width="0.5" height="642"/>
	<rect x="898.5" class="st2" width="0.5" height="642"/>
	<rect x="918.9" class="st2" width="0.5" height="642"/>
	<rect x="939.3" class="st2" width="0.5" height="642"/>
	<rect x="0.8" y="14.4" class="st2" width="958.5" height="0.5"/>
	<rect x="0.8" y="34.8" class="st2" width="958.5" height="0.5"/>
	<rect x="0.8" y="55.2" class="st2" width="958.5" height="0.5"/>
	<rect x="0.8" y="75.6" class="st2" width="958.5" height="0.5"/>
	<rect x="0.8" y="96.1" class="st2" width="958.5" height="0.5"/>
	<rect x="0.8" y="116.5" class="st2" width="958.5" height="0.5"/>
	<rect x="0.8" y="136.9" class="st2" width="958.5" height="0.5"/>
	<rect x="0.8" y="157.4" class="st2" width="958.5" height="0.5"/>
	<rect x="0.8" y="177.8" class="st2" width="958.5" height="0.5"/>
	<rect x="0.8" y="198.2" class="st2" width="958.5" height="0.5"/>
	<rect x="0.8" y="218.6" class="st2" width="958.5" height="0.5"/>
	<rect x="0.8" y="239" class="st2" width="958.5" height="0.5"/>
	<rect x="0.8" y="259.5" class="st2" width="958.5" height="0.5"/>
	<rect x="0.8" y="279.9" class="st2" width="958.5" height="0.5"/>
	<rect x="0.8" y="300.3" class="st2" width="958.5" height="0.5"/>
	<rect x="0.8" y="320.8" class="st2" width="958.5" height="0.5"/>
	<rect x="0.8" y="341.2" class="st2" width="958.5" height="0.5"/>
	<rect x="0.8" y="361.6" class="st2" width="958.5" height="0.5"/>
	<rect x="0.8" y="382" class="st2" width="958.5" height="0.5"/>
	<rect x="0.8" y="402.5" class="st2" width="958.5" height="0.5"/>
	<rect x="0.8" y="422.9" class="st2" width="958.5" height="0.5"/>
	<rect x="0.8" y="443.3" class="st2" width="958.5" height="0.5"/>
	<rect x="0.8" y="463.7" class="st2" width="958.5" height="0.5"/>
	<rect x="0.8" y="484.2" class="st2" width="958.5" height="0.5"/>
	<rect x="0.8" y="504.6" class="st2" width="958.5" height="0.5"/>
	<rect x="0.8" y="525" class="st2" width="958.5" height="0.5"/>
	<rect x="0.8" y="545.4" class="st2" width="958.5" height="0.5"/>
	<rect x="0.8" y="565.9" class="st2" width="958.5" height="0.5"/>
	<rect x="0.8" y="586.3" class="st2" width="958.5" height="0.5"/>
	<rect x="0.8" y="606.7" class="st2" width="958.5" height="0.5"/>
	<rect x="0.8" y="627.1" class="st2" width="958.5" height="0.5"/>
</g>
<polygon class="st2" points="853.9,72.5 832.7,51.4 853.9,30.2 856.7,33.1 838.4,51.4 856.7,69.7 "/>
<polygon class="st2" points="886,72.5 864.9,51.4 886,30.2 888.9,33.1 870.5,51.4 888.9,69.7 "/>
<polygon class="st2" points="918.2,72.5 897,51.4 918.2,30.2 921,33.1 902.7,51.4 921,69.7 "/>
<polygon class="st2" points="49.8,550.6 31.5,532.3 13.1,550.6 10.3,547.8 31.4,526.7 52.6,547.8 "/>
<polygon class="st2" points="49.8,582.8 31.5,564.5 13.1,582.8 10.3,580 31.4,558.8 52.6,580 "/>
<polygon class="st2" points="49.8,614.9 31.5,596.6 13.1,614.9 10.3,612.1 31.4,591 52.6,612.1 "/>
<rect x="77.5" y="121" class="st3" width="817" height="404"/>
<path class="st4" d="M893.5,122v402h-815V122H893.5 M895.5,120h-819v406h819V120z"/>
<polygon class="st2" points="240,514 65.5,514 65.5,110 882.5,110 882.5,514 349.2,514 361.4,582.9 "/>
<path class="st4" d="M881.5,111v402H348l12,68l-119.8-68H66.5V111H881.5 M883.5,109h-819v406h175.2L359,582.7l3.7,2.1l-0.7-4.2
	L350.4,515h533.1V109z"/>
<rect x="65.5" y="110" class="st5" width="817" height="62"/>
<path class="st4" d="M881.5,111v60h-815v-60H881.5 M883.5,109h-819v64h819V109z"/>
<g>
	<circle class="st6" cx="99" cy="143" r="11"/>
	<path class="st4" d="M99,155c-6.6,0-12-5.4-12-12s5.4-12,12-12s12,5.4,12,12S105.6,155,99,155z M99,133c-5.5,0-10,4.5-10,10
		s4.5,10,10,10s10-4.5,10-10S104.5,133,99,133z"/>
</g>
<g>
	<circle class="st7" cx="140" cy="143" r="11"/>
	<path class="st4" d="M140,155c-6.6,0-12-5.4-12-12s5.4-12,12-12s12,5.4,12,12S146.6,155,140,155z M140,133c-5.5,0-10,4.5-10,10
		s4.5,10,10,10s10-4.5,10-10S145.5,133,140,133z"/>
</g>
<g>
	<circle class="st8" cx="181" cy="143" r="11"/>
	<path class="st4" d="M181,155c-6.6,0-12-5.4-12-12s5.4-12,12-12s12,5.4,12,12S187.6,155,181,155z M181,133c-5.5,0-10,4.5-10,10
		s4.5,10,10,10s10-4.5,10-10S186.5,133,181,133z"/>
</g>
<path class="st9" d="M88.2,236.9c-8.6,9.1-15.9,9.1-24.4,0c-5.6-5.9-10.3-5.9-15.9,0c-8.5,9-15.4,9-23.9,0c-5.6-6-9.5-6-15.1,0
	l-2.3-4.4c6.9-7.3,12.6-7.6,19.8,0c6.7,7.1,11.7,8,19.2,0c7.1-7.6,13.8-7.2,20.6,0c7,7.4,12.5,7.7,19.8,0s11.8-7.6,18.9,0l-2.3,4.4
	C96.8,230.8,94,230.8,88.2,236.9z M88.2,222c-8.6,9.1-15.9,9.1-24.4,0c-5.6-5.9-10.3-5.9-15.9,0c-8.5,9-15.4,9-23.9,0
	c-5.6-6-9.5-6-15.1,0l-2.3-4.4c6.9-7.3,12.6-7.6,19.8,0c6.7,7.1,11.7,8,19.2,0c7.1-7.6,13.8-7.2,20.6,0c7,7.4,12.5,7.7,19.8,0
	s11.8-7.6,18.9,0l-2.3,4.4C96.8,215.9,94,215.9,88.2,222L88.2,222z M26.3,247.4c6.7,7.1,11.7,8,19.2,0c7.1-7.6,13.8-7.2,20.6,0
	c7,7.4,12.5,7.7,19.8,0c7.1-7.6,11.8-7.6,18.9,0l-2.3,4.4c-5.7-6.1-8.5-6.1-14.3,0c-8.6,9.1-15.9,9.1-24.4,0
	c-5.6-5.9-10.3-5.9-15.9,0c-8.5,9-15.4,9-23.9,0c-5.6-6-9.5-6-15.1,0l-2.3-4.4C13.4,240.1,19.2,239.8,26.3,247.4z"/>
<path class="st9" d="M917.8,538.8c-8.6,9.1-15.9,9.1-24.4,0c-5.6-5.9-10.3-5.9-15.9,0c-8.5,9-15.4,9-23.9,0c-5.7-6-9.5-6-15.1,0
	l-2.3-4.4c6.9-7.3,12.6-7.6,19.8,0c6.7,7.1,11.7,8,19.2,0c7.1-7.6,13.8-7.2,20.6,0c7,7.4,12.5,7.7,19.8,0s11.8-7.6,18.9,0l-2.3,4.4
	C926.4,532.7,923.6,532.7,917.8,538.8z M917.8,523.9c-8.6,9.1-15.9,9.1-24.4,0c-5.6-5.9-10.3-5.9-15.9,0c-8.5,9-15.4,9-23.9,0
	c-5.7-6-9.5-6-15.1,0l-2.3-4.4c6.9-7.3,12.6-7.6,19.8,0c6.7,7.1,11.7,8,19.2,0c7.1-7.6,13.8-7.2,20.6,0c7,7.4,12.5,7.7,19.8,0
	c7.1-7.6,11.8-7.6,18.9,0l-2.3,4.4C926.4,517.8,923.6,517.8,917.8,523.9L917.8,523.9z M856,549.3c6.7,7.1,11.7,8,19.2,0
	c7.1-7.6,13.8-7.2,20.6,0c7,7.4,12.5,7.7,19.8,0c7.1-7.6,11.8-7.6,18.9,0l-2.3,4.4c-5.7-6.1-8.5-6.1-14.3,0
	c-8.6,9.1-15.9,9.1-24.4,0c-5.6-5.9-10.3-5.9-15.9,0c-8.5,9-15.4,9-23.9,0c-5.7-6-9.5-6-15.1,0l-2.3-4.4
	C843,542,848.8,541.7,856,549.3z"/>
<g>
	<path class="st7" d="M774,592.6l-31.4-31.4c15.1-20,11.2-48.5-8.8-63.7c-20-15.1-48.5-11.2-63.7,8.8c-15.1,20-11.2,48.5,8.8,63.7
		c16.2,12.3,38.6,12.3,54.8,0l31.4,31.4L774,592.6z M683,557.1c-12.9-12.9-12.9-33.8,0-46.7c12.9-12.9,33.8-12.9,46.7,0
		c12.9,12.9,12.9,33.8,0,46.7c-6.2,6.2-14.6,9.7-23.3,9.7C697.6,566.8,689.2,563.3,683,557.1z"/>
	<path class="st4" d="M765.1,602.9l-31.5-31.5c-16.4,12-39.1,11.8-55.3-0.5c-9.9-7.5-16.3-18.4-18-30.7s1.5-24.5,9-34.4
		s18.4-16.3,30.7-18s24.5,1.5,34.4,9c20.2,15.3,24.4,44,9.6,64.4l31.5,31.5L765.1,602.9z M733.9,568.7l31.3,31.3l7.4-7.4l-31.3-31.3
		l0.5-0.7c7.2-9.5,10.2-21.2,8.6-32.9c-1.6-11.8-7.8-22.2-17.2-29.4c-9.5-7.2-21.2-10.2-32.9-8.6c-11.8,1.6-22.2,7.8-29.4,17.2
		c-7.2,9.5-10.2,21.2-8.6,32.9s7.8,22.2,17.2,29.4c15.8,11.9,37.8,11.9,53.6,0L733.9,568.7z M706.3,567.8c-8.9,0-17.7-3.6-24-10
		c-6.4-6.4-10-15-10-24s3.5-17.6,10-24c6.4-6.4,15-10,24-10l0,0c9.1,0,17.6,3.5,24,10c6.4,6.4,10,15,10,24c0,9.1-3.5,17.6-10,24
		C724,564.2,715.4,567.8,706.3,567.8L706.3,567.8z M706.3,501.8c-8.5,0-16.6,3.3-22.6,9.4c-6,6-9.4,14.1-9.4,22.6s3.3,16.6,9.4,22.6
		l0,0c5.9,6,14.1,9.4,22.5,9.4h0.1c8.5,0,16.6-3.3,22.6-9.4c6-6,9.4-14.1,9.4-22.6s-3.3-16.6-9.4-22.6S714.9,501.8,706.3,501.8
		L706.3,501.8z"/>
</g>
</svg>
