<svg id="图层_1" data-name="图层 1" xmlns="http://www.w3.org/2000/svg" xmlns:xlink="http://www.w3.org/1999/xlink" viewBox="0 0 72 62.54"><defs><style>.cls-1{fill:none;}.cls-2{clip-path:url(#clip-path);}.cls-3,.cls-4,.cls-7,.cls-8{fill-rule:evenodd;}.cls-3{fill:url(#linear-gradient);}.cls-4{fill:url(#linear-gradient-2);}.cls-5{fill:url(#linear-gradient-3);}.cls-6{fill:url(#linear-gradient-4);}.cls-7{fill:url(#linear-gradient-5);}.cls-8{fill:url(#linear-gradient-6);}.cls-9{fill:url(#linear-gradient-7);}.cls-10{fill:url(#linear-gradient-8);}</style><clipPath id="clip-path" transform="translate(0 -4.73)"><rect class="cls-1" width="72" height="72"/></clipPath><linearGradient id="linear-gradient" x1="217.73" y1="555.97" x2="252.46" y2="590.7" gradientTransform="translate(281.07 607.14) rotate(180)" gradientUnits="userSpaceOnUse"><stop offset="0" stop-color="#e9eea9"/><stop offset="0.88" stop-color="#e3ab00"/></linearGradient><linearGradient id="linear-gradient-2" x1="230.16" y1="579.5" x2="257.32" y2="606.66" xlink:href="#linear-gradient"/><linearGradient id="linear-gradient-3" x1="225.14" y1="584.18" x2="240.58" y2="599.62" xlink:href="#linear-gradient"/><linearGradient id="linear-gradient-4" x1="210.5" y1="563.29" x2="228.75" y2="581.54" xlink:href="#linear-gradient"/><linearGradient id="linear-gradient-5" x1="357.38" y1="154.57" x2="322.66" y2="119.85" gradientTransform="translate(366.04 175.41) rotate(180)" gradientUnits="userSpaceOnUse"><stop offset="0" stop-color="#acacad"/><stop offset="0.88" stop-color="#231815"/></linearGradient><linearGradient id="linear-gradient-6" x1="48.25" y1="71.52" x2="21.09" y2="44.36" gradientUnits="userSpaceOnUse"><stop offset="0.12" stop-color="#231815"/><stop offset="1" stop-color="#807f80"/></linearGradient><linearGradient id="linear-gradient-7" x1="31.51" y1="64.48" x2="16.07" y2="49.04" gradientUnits="userSpaceOnUse"><stop offset="0.12" stop-color="#231815"/><stop offset="1" stop-color="#595757"/></linearGradient><linearGradient id="linear-gradient-8" x1="19.68" y1="46.4" x2="1.43" y2="28.15" xlink:href="#linear-gradient-7"/></defs><title>未标题-1</title><g class="cls-2"><path class="cls-3" d="M21.1,37.5l-5.41-8.14c2.39-1,4.67-1.93,7-2.83,6.85-2.65,13.77-5.2,21-6.36,8.15-1.32,15.93-.23,22.45,5.32,4.58,3.91,6.68,9,5.39,15-.68,3.19-2.77,5.54-5.31,7.49-.91.71-1.91,1.32-3,2a15.45,15.45,0,0,1-1.21-2,1.39,1.39,0,0,1,.2-1.1,11.4,11.4,0,0,0,1.53-8.78c-.82-3.48-3.22-5.7-6.21-7.31-4.05-2.18-8.35-2.15-12.75-1.35A95.62,95.62,0,0,0,22.28,37Z" transform="translate(0 -4.73)"/><path class="cls-4" d="M13.79,10.44l5,7.62a48.71,48.71,0,0,1,41.3.36s1.52-1.36,1.09-2.11C55.44,6.33,41.5,4.81,38.08,4.74A51.39,51.39,0,0,0,13.79,10.44Z" transform="translate(0 -4.73)"/><path class="cls-5" d="M34.1,13.92S44,3.72,53.9,9.2c4.32,2.37,7.09,6.34,7.32,7.11.36,1.25-.71,2.28-1.09,2.11C57.54,17.26,46.71,12.2,34.1,13.92Z" transform="translate(0 -4.73)"/><path class="cls-6" d="M63.28,50s-1.66-1.84-1.19-2.69C69.44,34,54.59,28,49,29c-1.57.28,16.74-7.23,21.32,1.56C74.28,38.18,71,45.68,63.28,50Z" transform="translate(0 -4.73)"/><path class="cls-7" d="M50.9,34.5l5.41,8.14c-2.39,1-4.67,1.93-7,2.83-6.85,2.65-13.77,5.2-21,6.36-8.15,1.32-15.93.23-22.45-5.32-4.58-3.91-6.68-9-5.39-15,.68-3.19,2.77-5.54,5.31-7.49.91-.71,1.91-1.32,3-2a15.45,15.45,0,0,1,1.21,2,1.39,1.39,0,0,1-.2,1.1A11.4,11.4,0,0,0,8.2,33.84c.82,3.48,3.22,5.7,6.21,7.31,4.05,2.18,8.35,2.15,12.75,1.35A95.62,95.62,0,0,0,49.72,35Z" transform="translate(0 -4.73)"/><path class="cls-8" d="M58.21,61.56l-5-7.62a48.71,48.71,0,0,1-41.3-.36s-1.52,1.36-1.09,2.11c5.78,10,19.72,11.5,23.14,11.57A51.39,51.39,0,0,0,58.21,61.56Z" transform="translate(0 -4.73)"/><path class="cls-9" d="M37.9,58.08S28,68.28,18.1,62.8c-4.32-2.37-7.09-6.34-7.32-7.11-.36-1.25.71-2.28,1.09-2.11C14.46,54.74,25.29,59.8,37.9,58.08Z" transform="translate(0 -4.73)"/><path class="cls-10" d="M8.72,22s1.66,1.84,1.19,2.69C2.56,38,17.41,44,23,43c1.57-.28-16.74,7.23-21.32-1.56C-2.28,33.82,1,26.32,8.72,22Z" transform="translate(0 -4.73)"/></g></svg>